REM DIRINDEX 1\2,1\3,1\4,1\5\6,1\5\7,1\8
REM DIRNAME folder01,folder02,folder03,folder04,folder05,folder06,folder07,folder08
TITLE ""
FILE "139 【139】Unit8 (1573 capital_1584 devise).mp3" MP3
  TRACK 01 AUDIO
    TITLE "0:"
    INDEX 01 00:00:00
  TRACK 02 AUDIO
    TITLE "2:cjc115_5432"
    INDEX 01 00:00:07
  TRACK 03 AUDIO
    TITLE "0:"
    INDEX 01 00:01:17
  TRACK 04 AUDIO
    TITLE "3:cjc115_5433"
    INDEX 01 00:01:22
  TRACK 05 AUDIO
    TITLE "0:"
    INDEX 01 00:03:23
  TRACK 06 AUDIO
    TITLE "4:cjc115_5434"
    INDEX 01 00:03:31
  TRACK 07 AUDIO
    TITLE "0:"
    INDEX 01 00:07:31
  TRACK 08 AUDIO
    TITLE "2:cjc115_5435"
    INDEX 01 00:08:40
  TRACK 09 AUDIO
    TITLE "0:"
    INDEX 01 00:09:45
  TRACK 10 AUDIO
    TITLE "3:cjc115_5436"
    INDEX 01 00:09:55
  TRACK 11 AUDIO
    TITLE "0:"
    INDEX 01 00:11:46
  TRACK 12 AUDIO
    TITLE "4:cjc115_5437"
    INDEX 01 00:11:54
  TRACK 13 AUDIO
    TITLE "0:"
    INDEX 01 00:14:62
  TRACK 14 AUDIO
    TITLE "2:cjc115_5438"
    INDEX 01 00:15:70
  TRACK 15 AUDIO
    TITLE "0:"
    INDEX 01 00:17:06
  TRACK 16 AUDIO
    TITLE "3:cjc115_5439"
    INDEX 01 00:17:14
  TRACK 17 AUDIO
    TITLE "0:"
    INDEX 01 00:19:18
  TRACK 18 AUDIO
    TITLE "4:cjc115_5440"
    INDEX 01 00:19:22
  TRACK 19 AUDIO
    TITLE "0:"
    INDEX 01 00:22:58
  TRACK 20 AUDIO
    TITLE "2:cjc115_5441"
    INDEX 01 00:23:67
  TRACK 21 AUDIO
    TITLE "0:"
    INDEX 01 00:25:31
  TRACK 22 AUDIO
    TITLE "3:cjc115_5442"
    INDEX 01 00:25:37
  TRACK 23 AUDIO
    TITLE "0:"
    INDEX 01 00:28:00
  TRACK 24 AUDIO
    TITLE "4:cjc115_5443"
    INDEX 01 00:28:12
  TRACK 25 AUDIO
    TITLE "0:"
    INDEX 01 00:32:58
  TRACK 26 AUDIO
    TITLE "2:cjc115_5444"
    INDEX 01 00:33:66
  TRACK 27 AUDIO
    TITLE "0:"
    INDEX 01 00:35:00
  TRACK 28 AUDIO
    TITLE "3:cjc115_5445"
    INDEX 01 00:35:02
  TRACK 29 AUDIO
    TITLE "0:"
    INDEX 01 00:36:19
  TRACK 30 AUDIO
    TITLE "4:cjc115_5446"
    INDEX 01 00:36:27
  TRACK 31 AUDIO
    TITLE "0:"
    INDEX 01 00:39:58
  TRACK 32 AUDIO
    TITLE "2:cjc115_5447"
    INDEX 01 00:40:62
  TRACK 33 AUDIO
    TITLE "0:"
    INDEX 01 00:42:00
  TRACK 34 AUDIO
    TITLE "3:cjc115_5448"
    INDEX 01 00:42:08
  TRACK 35 AUDIO
    TITLE "0:"
    INDEX 01 00:44:09
  TRACK 36 AUDIO
    TITLE "4:cjc115_5449"
    INDEX 01 00:44:12
  TRACK 37 AUDIO
    TITLE "0:"
    INDEX 01 00:48:00
  TRACK 38 AUDIO
    TITLE "2:cjc115_5450"
    INDEX 01 00:49:10
  TRACK 39 AUDIO
    TITLE "0:"
    INDEX 01 00:50:48
  TRACK 40 AUDIO
    TITLE "3:cjc115_5451"
    INDEX 01 00:50:52
  TRACK 41 AUDIO
    TITLE "0:"
    INDEX 01 00:52:28
  TRACK 42 AUDIO
    TITLE "4:cjc115_5452"
    INDEX 01 00:52:36
  TRACK 43 AUDIO
    TITLE "0:"
    INDEX 01 00:55:57
  TRACK 44 AUDIO
    TITLE "2:cjc115_5453"
    INDEX 01 00:56:67
  TRACK 45 AUDIO
    TITLE "0:"
    INDEX 01 00:58:13
  TRACK 46 AUDIO
    TITLE "3:cjc115_5454"
    INDEX 01 00:58:18
  TRACK 47 AUDIO
    TITLE "0:"
    INDEX 01 01:00:00
  TRACK 48 AUDIO
    TITLE "4:cjc115_5455"
    INDEX 01 01:00:12
  TRACK 49 AUDIO
    TITLE "0:"
    INDEX 01 01:03:08
  TRACK 50 AUDIO
    TITLE "2:cjc115_5456"
    INDEX 01 01:04:17
  TRACK 51 AUDIO
    TITLE "0:"
    INDEX 01 01:05:40
  TRACK 52 AUDIO
    TITLE "3:cjc115_5457"
    INDEX 01 01:05:46
  TRACK 53 AUDIO
    TITLE "0:"
    INDEX 01 01:06:63
  TRACK 54 AUDIO
    TITLE "4:cjc115_5458"
    INDEX 01 01:06:67
  TRACK 55 AUDIO
    TITLE "0:"
    INDEX 01 01:10:00
  TRACK 56 AUDIO
    TITLE "2:cjc115_5459"
    INDEX 01 01:11:09
  TRACK 57 AUDIO
    TITLE "0:"
    INDEX 01 01:12:23
  TRACK 58 AUDIO
    TITLE "3:cjc115_5460"
    INDEX 01 01:12:24
  TRACK 59 AUDIO
    TITLE "0:"
    INDEX 01 01:14:37
  TRACK 60 AUDIO
    TITLE "4:cjc115_5461"
    INDEX 01 01:14:47
  TRACK 61 AUDIO
    TITLE "0:"
    INDEX 01 01:18:45
  TRACK 62 AUDIO
    TITLE "2:cjc115_5462"
    INDEX 01 01:19:52
  TRACK 63 AUDIO
    TITLE "0:"
    INDEX 01 01:21:16
  TRACK 64 AUDIO
    TITLE "3:cjc115_5463"
    INDEX 01 01:21:20
  TRACK 65 AUDIO
    TITLE "0:"
    INDEX 01 01:23:15
  TRACK 66 AUDIO
    TITLE "4:cjc115_5464"
    INDEX 01 01:23:20
  TRACK 67 AUDIO
    TITLE "0:"
    INDEX 01 01:27:14
  TRACK 68 AUDIO
    TITLE "2:cjc115_5465"
    INDEX 01 01:28:24
  TRACK 69 AUDIO
    TITLE "0:"
    INDEX 01 01:29:45
  TRACK 70 AUDIO
    TITLE "3:cjc115_5466"
    INDEX 01 01:29:52
  TRACK 71 AUDIO
    TITLE "0:"
    INDEX 01 01:31:14
  TRACK 72 AUDIO
    TITLE "4:cjc115_5467"
    INDEX 01 01:31:22
  TRACK 73 AUDIO
    TITLE "0:"
    INDEX 01 01:35:29
